<svg width="73" height="73" viewBox="0 0 73 73" fill="none" xmlns="http://www.w3.org/2000/svg">
<path d="M67.4935 35.9449C68.0993 36.008 68.0962 36.9428 67.4903 37.0059C56.5029 38.1511 49.7677 39.5091 45.4037 42.9259C40.1369 47.0348 38.4365 54.1751 37.0289 67.5817C36.9654 68.1866 36.0357 68.1858 35.9723 67.5809C34.5091 53.6264 32.7202 46.4921 26.9194 42.4576C22.5797 39.4175 15.9336 38.1445 5.46174 37.0542C4.85637 36.9911 4.85614 36.0607 5.46151 35.9975C16.444 34.8525 23.221 33.5013 27.5442 30.1262C32.863 25.9666 34.5666 18.8512 35.9756 5.3886C36.0389 4.78403 36.9663 4.77987 37.0302 5.38438C38.3258 17.6417 39.847 24.6255 44.102 28.8774C48.3416 33.1139 55.335 34.6783 67.4935 35.9449Z" fill="#212121"/>
<path d="M53 36.4882C46.5271 37.0763 42.8081 37.6172 40.525 39.4048C37.8417 41.4982 37.2061 45.3321 36.5 53C35.7703 45.0499 35.1113 41.2395 32.169 39.1932C29.8859 37.5937 26.1904 37.0763 20 36.5118C26.4494 35.9237 30.1919 35.3828 32.4515 33.6187C35.1583 31.5018 35.7939 27.6914 36.5 20C37.1591 27.0798 37.7475 30.8667 39.9365 33.0542C42.1255 35.2416 45.9387 35.8532 53 36.4882Z" fill="white"/>
</svg>
