<svg width="1920" height="929" viewBox="0 0 1920 929" fill="white" xmlns="http://www.w3.org/2000/svg">
<path d="M2187.63 979.217C2468.91 1166.71 2617.63 1455.16 2715.95 1679.7L2714.2 1680.88C2615.93 1456.48 2467.44 1168.55 2186.68 981.403C1905.93 794.266 1492.76 707.805 864.978 886.794C809.371 902.648 756.207 919.299 705.331 936.65H697.812C750.831 918.426 806.345 900.965 864.53 884.375C1492.64 705.293 1906.33 791.718 2187.63 979.217Z" fill="#1D1D1D"/>
<path d="M2154.14 819.174C2435.42 1006.67 2584.14 1295.12 2682.46 1519.65L2680.71 1520.84C2582.44 1296.44 2433.95 1008.51 2153.19 821.36C1872.44 634.223 1459.27 547.762 831.488 726.751C620.268 786.973 444.295 858.685 295.092 936.65H289.949C440.194 857.742 617.649 785.173 831.04 724.333C1459.15 545.251 1872.84 631.675 2154.14 819.174Z" fill="#1D1D1D"/>
<path d="M2102.18 659.72C2383.46 847.211 2532.18 1135.66 2630.5 1360.2L2628.75 1361.38C2530.48 1136.98 2381.99 849.051 2101.23 661.906C1820.48 474.769 1407.31 388.308 779.528 567.297C441.783 663.592 194.16 789.266 2 922.911V920.067C194.198 786.553 441.734 661.06 779.08 564.878C1407.19 385.796 1820.88 472.221 2102.18 659.72Z" fill="#1D1D1D"/>
<path d="M2026.45 501.398C2307.73 688.889 2456.45 977.342 2554.78 1201.88L2553.02 1203.06C2454.76 978.663 2306.26 690.729 2025.5 503.584C1744.75 316.447 1331.58 229.986 703.801 408.975C408.843 493.071 182.62 599.574 2.04517 714.225V711.437C182.624 596.908 408.739 490.555 703.354 406.556C1331.46 227.474 1745.16 313.899 2026.45 501.398Z" fill="#1D1D1D"/>
<path d="M1776.57 193.781C2057.85 381.272 2206.57 669.725 2304.9 894.259L2303.14 895.444C2204.88 671.046 2056.39 383.112 1775.62 195.967C1494.88 8.82996 1081.7 -77.6312 453.922 101.358C281.276 150.582 132.178 207.482 1.99963 269.2V266.543C132.099 204.913 281.056 148.098 453.474 98.9394C1081.58 -80.1426 1495.28 6.28177 1776.57 193.781Z" fill="#1D1D1D"/>
</svg>
