<svg width="498" height="477" viewBox="0 0 498 477" fill="none" xmlns="http://www.w3.org/2000/svg">
<path d="M6.7087 122.077C-28.0424 -1.35469 100.689 -13.9186 193.59 23.3514C247.794 42.5189 283.39 -17.0905 350.538 6.69886C417.686 30.4882 337.189 105.425 439.933 143.884C542.678 182.344 492.519 354.42 402.719 356.402C312.919 358.385 337.594 387.329 247.794 453.542C157.994 519.756 6.70891 427.77 44.3278 330.63C81.9467 233.491 44.3274 255.694 6.7087 122.077Z" stroke="#4B4B4B" stroke-width="1.46743"/>
<path d="M199.982 218.138C195.973 206.381 214.753 187.416 229.855 195.51C243.683 202.921 257.765 197.923 267.069 201.227C291.562 209.926 282.553 214.531 293.501 224.862C306.825 237.434 313.183 270.355 282.553 270.355C257.361 270.355 264.899 282.348 246.035 287.661C227.171 292.975 205.778 283.93 205.778 260.116C205.778 251.173 206.66 237.718 199.982 218.138Z" stroke="#4B4B4B" stroke-width="1.46743"/>
<path d="M24.2752 130.21C-7.6813 16.9306 111.054 3.78476 196.883 38.4024C247.416 56.5011 281.057 1.85636 342.946 23.7834C406.216 46.2009 332.219 114.744 426.618 150.646C521.233 186.752 476.212 346.178 391.791 347.98C307.864 349.782 330.981 377.185 247.63 437.862C164.279 498.54 24.8022 414.094 59.0012 323.62C93.2002 234.498 59.0811 253.46 24.2752 130.21Z" stroke="#4B4B4B" stroke-width="1.46743"/>
<path d="M41.8417 138.344C12.6799 35.2166 121.42 21.4888 200.176 53.454C247.039 70.4841 278.723 20.8039 335.354 40.8687C394.746 61.9144 327.248 124.063 413.302 157.409C499.788 191.161 459.905 337.936 380.863 339.558C302.81 341.18 324.369 367.042 247.466 422.183C170.564 477.324 42.8957 400.419 73.6748 316.611C104.454 235.507 73.8348 251.227 41.8417 138.344Z" stroke="#4B4B4B" stroke-width="1.46743"/>
<path d="M59.4103 146.477C33.0432 53.5027 131.788 39.1929 203.471 68.5057C246.663 84.4671 276.392 39.7515 327.764 57.9541C383.279 77.6279 322.279 133.383 399.988 164.171C478.345 195.57 443.6 329.695 369.937 331.137C297.757 332.579 317.758 356.899 247.305 406.504C176.851 456.109 60.9911 386.743 88.3503 309.601C115.71 236.515 88.5906 248.994 59.4103 146.477Z" stroke="#4B4B4B" stroke-width="1.46743"/>
<path d="M76.979 154.612C53.4066 71.79 142.156 56.8982 206.766 83.5587C246.288 98.4514 274.061 58.7004 320.175 75.0406C371.811 93.3426 317.31 142.704 386.675 170.935C456.902 199.981 427.295 321.455 359.011 322.716C292.705 323.978 311.148 346.758 247.143 390.826C183.138 434.895 79.0868 373.069 103.026 302.593C126.965 237.525 103.347 246.762 76.979 154.612Z" stroke="#4B4B4B" stroke-width="1.46743"/>
<path d="M94.546 163.159C73.7683 90.4884 152.522 75.0147 210.06 99.0228C245.911 112.847 271.728 78.0604 312.583 92.5384C360.342 109.469 312.34 152.436 373.359 178.11C435.458 204.802 410.988 313.626 348.084 314.707C287.651 315.789 304.536 337.028 246.98 375.56C189.424 414.091 97.1806 359.806 117.7 295.996C138.219 238.946 118.101 244.941 94.546 163.159Z" stroke="#4B4B4B" stroke-width="1.46743"/>
<path d="M112.117 172.193C94.1342 109.675 162.892 93.619 213.357 114.975C245.538 127.73 269.4 97.9083 304.996 110.524C348.877 126.082 307.374 162.656 360.048 185.773C414.017 210.112 394.686 306.285 337.16 307.186C282.601 308.087 297.928 327.785 246.821 360.781C195.713 393.776 115.279 347.031 132.378 289.887C149.478 240.854 132.859 243.608 112.117 172.193Z" stroke="#4B4B4B" stroke-width="1.46743"/>
<path d="M129.685 181.254C114.497 128.889 173.259 112.251 216.651 130.954C245.162 142.641 267.067 117.784 297.405 128.537C337.409 142.723 302.404 172.903 346.733 193.463C392.573 215.449 378.38 298.971 326.233 299.692C277.548 300.413 291.317 318.57 246.658 346.029C202 373.489 133.373 334.283 147.053 283.805C160.732 242.79 147.614 242.302 129.685 181.254Z" stroke="#4B4B4B" stroke-width="1.46743"/>
<path d="M147.255 190.354C134.862 148.141 183.629 130.921 219.948 146.972C244.788 157.59 264.738 137.698 289.817 146.589C325.943 159.403 297.437 183.189 333.421 201.192C371.132 220.824 362.076 291.697 315.309 292.237C272.497 292.778 284.708 309.394 246.498 331.317C208.288 353.24 151.471 321.574 161.73 277.762C171.99 244.765 162.372 241.035 147.255 190.354Z" stroke="#4B4B4B" stroke-width="1.46743"/>
<path d="M164.827 199.512C155.228 167.451 193.999 149.649 223.246 163.048C244.416 172.597 262.41 157.669 282.23 164.698C314.479 176.141 292.472 193.533 320.111 208.979C349.693 226.257 345.774 284.479 304.386 284.839C267.448 285.2 278.101 300.275 246.34 316.661C214.579 333.048 169.569 308.923 176.409 271.776C183.249 246.797 177.131 239.826 164.827 199.512Z" stroke="#4B4B4B" stroke-width="1.46743"/>
<path d="M182.399 208.757C175.595 186.849 204.371 168.465 226.545 179.211C244.044 187.692 260.082 177.728 274.644 182.895C303.015 192.966 287.507 203.964 306.801 216.853C328.253 231.778 329.473 277.349 293.464 277.53C262.399 277.71 271.494 291.244 246.182 302.094C220.869 312.944 187.668 296.359 191.088 265.878C194.508 248.918 191.89 238.704 182.399 208.757Z" stroke="#4B4B4B" stroke-width="1.46743"/>
</svg>
