<svg xmlns="http://www.w3.org/2000/svg" width="1918" height="929" viewBox="0 0 1918 929" fill="none">
<path d="M2185.63 979.217C2466.91 1166.71 2615.63 1455.16 2713.95 1679.7L2712.2 1680.88C2613.93 1456.48 2465.44 1168.55 2184.68 981.403C1903.93 794.266 1490.76 707.805 862.978 886.794C807.371 902.648 754.207 919.299 703.331 936.65H695.812C748.831 918.426 804.345 900.965 862.53 884.375C1490.64 705.293 1904.33 791.718 2185.63 979.217Z" fill="#1D1D1D"/>
<path d="M2152.14 819.174C2433.42 1006.67 2582.14 1295.12 2680.46 1519.65L2678.71 1520.84C2580.44 1296.44 2431.95 1008.51 2151.19 821.36C1870.44 634.223 1457.27 547.762 829.488 726.751C618.268 786.973 442.295 858.685 293.092 936.65H287.949C438.194 857.742 615.649 785.173 829.04 724.333C1457.15 545.251 1870.84 631.675 2152.14 819.174Z" fill="#1D1D1D"/>
<path d="M2100.18 659.72C2381.46 847.211 2530.18 1135.66 2628.5 1360.2L2626.75 1361.38C2528.48 1136.98 2379.99 849.051 2099.23 661.906C1818.48 474.769 1405.31 388.308 777.528 567.297C439.783 663.592 192.16 789.266 0 922.911V920.067C192.198 786.553 439.733 661.06 777.08 564.878C1405.19 385.796 1818.88 472.221 2100.18 659.72Z" fill="#1D1D1D"/>
<path d="M2024.45 501.398C2305.73 688.889 2454.45 977.342 2552.78 1201.88L2551.02 1203.06C2452.76 978.663 2304.26 690.729 2023.5 503.584C1742.75 316.447 1329.58 229.986 701.801 408.975C406.843 493.071 180.62 599.574 0.045166 714.225V711.437C180.624 596.908 406.739 490.555 701.354 406.556C1329.46 227.474 1743.16 313.899 2024.45 501.398Z" fill="#1D1D1D"/>
<path d="M1774.57 193.781C2055.85 381.272 2204.57 669.725 2302.9 894.259L2301.14 895.444C2202.88 671.046 2054.39 383.112 1773.62 195.967C1492.88 8.82996 1079.7 -77.6312 451.922 101.358C279.276 150.582 130.178 207.482 -0.000366211 269.2V266.543C130.099 204.913 279.056 148.098 451.474 98.9394C1079.58 -80.1426 1493.28 6.28177 1774.57 193.781Z" fill="#1D1D1D"/>
</svg>