<svg width="16" height="16" viewBox="0 0 16 16" fill="none" xmlns="http://www.w3.org/2000/svg">
<path id="Vector" fill-rule="evenodd" clip-rule="evenodd" d="M1.13025 11.8916C0.432948 10.6892 0.0662756 9.32502 0.0666713 7.92794C0.0685309 3.55648 3.64231 0 8.03335 0C10.1645 0.000984749 12.1648 0.826677 13.6687 2.32523C15.173 3.82378 16.0009 5.81573 16 7.93416C15.9982 12.3057 12.4242 15.8625 8.03367 15.8625H8.03015C6.69688 15.8621 5.38684 15.5289 4.22328 14.8976L0 16L1.13025 11.8916ZM5.50819 4.13742C5.65514 4.14341 5.81773 4.15026 5.9722 4.49209C6.07776 4.72577 6.25539 5.16141 6.39694 5.50859C6.50125 5.76443 6.58598 5.97222 6.60785 6.01577C6.65941 6.11842 6.69375 6.23828 6.62502 6.37536C6.61474 6.39585 6.60522 6.41519 6.59612 6.43366C6.54447 6.53862 6.50651 6.61574 6.41903 6.71766C6.38475 6.75751 6.34931 6.80043 6.31386 6.84336C6.24269 6.92954 6.1715 7.01574 6.1097 7.07713C6.00623 7.17947 5.89884 7.29067 6.01913 7.49597C6.13945 7.70146 6.55329 8.37338 7.16627 8.91743C7.82476 9.50192 8.39682 9.74914 8.68732 9.87469C8.74437 9.89935 8.79057 9.91931 8.82442 9.93621C9.03065 10.0389 9.15093 10.0218 9.27122 9.88457C9.39154 9.74769 9.78647 9.28545 9.92396 9.08015C10.0614 8.87465 10.1989 8.90888 10.3879 8.9773C10.577 9.04572 11.5907 9.54239 11.7969 9.64504C11.8371 9.66505 11.8747 9.68311 11.9096 9.69986C12.0535 9.769 12.1507 9.8157 12.1922 9.88457C12.2437 9.97044 12.2437 10.3812 12.0719 10.8605C11.9 11.3398 11.0582 11.8021 10.6801 11.8363C10.6437 11.8396 10.6076 11.8438 10.5703 11.8482C10.221 11.8891 9.77996 11.9407 8.20575 11.3227C6.26873 10.5623 4.99154 8.67781 4.72768 8.28849C4.70604 8.25657 4.69122 8.2347 4.68341 8.22433L4.68111 8.22127C4.56994 8.07337 3.84145 7.10418 3.84145 6.10133C3.84145 5.15601 4.30821 4.66048 4.52297 4.43249C4.53765 4.41691 4.55115 4.40258 4.56324 4.38944C4.75213 4.18402 4.97557 4.13262 5.11303 4.13262C5.12056 4.13262 5.12809 4.13262 5.13562 4.13261C5.26544 4.1326 5.39461 4.13258 5.50819 4.13742Z" fill="white"/>
</svg>
