<svg width="298" height="54" viewBox="0 0 298 54" fill="none" xmlns="http://www.w3.org/2000/svg">
<rect width="53.1303" height="53.1303" rx="4.83003" fill="#045CFB"/>
<path d="M12.7139 34.3047C11.6893 34.3047 10.7768 34.1286 9.97638 33.7764C9.18052 33.4196 8.55161 32.9302 8.08965 32.3081C7.63226 31.6815 7.3967 30.9588 7.38298 30.1401H10.3743C10.3926 30.4832 10.5047 30.785 10.7105 31.0458C10.9209 31.3019 11.1999 31.5009 11.5475 31.6426C11.8951 31.7844 12.2862 31.8553 12.7207 31.8553C13.1735 31.8553 13.5737 31.7753 13.9214 31.6152C14.269 31.4551 14.5411 31.2333 14.7378 30.9497C14.9345 30.6661 15.0328 30.3391 15.0328 29.9686C15.0328 29.5935 14.9276 29.2619 14.7172 28.9738C14.5114 28.6811 14.2141 28.4524 13.8253 28.2877C13.4411 28.123 12.9837 28.0407 12.4531 28.0407H11.1427V25.859H12.4531C12.9014 25.859 13.297 25.7812 13.6401 25.6257C13.9877 25.4702 14.2575 25.2552 14.4496 24.9808C14.6417 24.7018 14.7378 24.377 14.7378 24.0065C14.7378 23.6543 14.6532 23.3456 14.484 23.0803C14.3193 22.8105 14.086 22.6001 13.7841 22.4491C13.4868 22.2982 13.1392 22.2227 12.7413 22.2227C12.3388 22.2227 11.9706 22.2959 11.6367 22.4423C11.3028 22.5841 11.0352 22.7876 10.834 23.0529C10.6327 23.3182 10.5252 23.6292 10.5115 23.9859H7.66428C7.678 23.1764 7.90898 22.4628 8.35722 21.8454C8.80546 21.2279 9.40922 20.7453 10.1685 20.3977C10.9323 20.0455 11.7945 19.8694 12.755 19.8694C13.7247 19.8694 14.5731 20.0455 15.3004 20.3977C16.0276 20.7499 16.5925 21.2256 16.995 21.8248C17.4021 22.4194 17.6033 23.0872 17.5988 23.8281C17.6033 24.6149 17.3586 25.2712 16.8647 25.7972C16.3753 26.3232 15.7372 26.6571 14.9505 26.7989V26.9087C15.9842 27.0413 16.7709 27.4004 17.3106 27.9858C17.8549 28.5667 18.1248 29.294 18.1202 30.1676C18.1248 30.968 17.8938 31.6792 17.4273 32.3013C16.9653 32.9233 16.3272 33.4127 15.5131 33.7695C14.6989 34.1263 13.7658 34.3047 12.7139 34.3047ZM32.6705 27.087C32.6705 28.6193 32.38 29.9229 31.7991 30.9977C31.2228 32.0726 30.4361 32.8936 29.439 33.4608C28.4465 34.0234 27.3304 34.3047 26.0909 34.3047C24.8422 34.3047 23.7216 34.0211 22.7291 33.4539C21.7366 32.8867 20.9521 32.0657 20.3758 30.9909C19.7995 29.916 19.5114 28.6147 19.5114 27.087C19.5114 25.5548 19.7995 24.2512 20.3758 23.1764C20.9521 22.1015 21.7366 21.2828 22.7291 20.7202C23.7216 20.153 24.8422 19.8694 26.0909 19.8694C27.3304 19.8694 28.4465 20.153 29.439 20.7202C30.4361 21.2828 31.2228 22.1015 31.7991 23.1764C32.38 24.2512 32.6705 25.5548 32.6705 27.087ZM29.6586 27.087C29.6586 26.0945 29.5099 25.2575 29.2126 24.576C28.9199 23.8945 28.5059 23.3776 27.9708 23.0254C27.4356 22.6732 26.809 22.4971 26.0909 22.4971C25.3728 22.4971 24.7462 22.6732 24.211 23.0254C23.6759 23.3776 23.2597 23.8945 22.9624 24.576C22.6696 25.2575 22.5233 26.0945 22.5233 27.087C22.5233 28.0796 22.6696 28.9166 22.9624 29.5981C23.2597 30.2796 23.6759 30.7965 24.211 31.1487C24.7462 31.5009 25.3728 31.677 26.0909 31.677C26.809 31.677 27.4356 31.5009 27.9708 31.1487C28.5059 30.7965 28.9199 30.2796 29.2126 29.5981C29.5099 28.9166 29.6586 28.0796 29.6586 27.087ZM42.7921 34.1125L38.2776 28.123H37.2622V34.1125H34.2915V20.0615H37.2622V25.6737H37.8591L42.5245 20.0615H46.2225L40.7407 26.5793L46.4763 34.1125H42.7921Z" fill="white"/>
<path d="M72.1826 33.9136C71.1637 33.9136 70.2555 33.7387 69.4579 33.3888C68.6655 33.0389 68.0352 32.5526 67.5669 31.93C67.1038 31.3022 66.8517 30.5741 66.8105 29.7457H68.7556C68.7967 30.2551 68.9717 30.695 69.2804 31.0655C69.5892 31.4309 69.9931 31.7139 70.4922 31.9145C70.9913 32.1152 71.5445 32.2156 72.1517 32.2156C72.8309 32.2156 73.4329 32.0972 73.9578 31.8605C74.4826 31.6238 74.8943 31.2945 75.1927 30.8726C75.4912 30.4506 75.6404 29.9618 75.6404 29.4061C75.6404 28.8246 75.4963 28.3126 75.2082 27.8701C74.92 27.4224 74.4981 27.0725 73.9424 26.8204C73.3866 26.5682 72.7074 26.4422 71.9047 26.4422H70.6389V24.7441H71.9047C72.5325 24.7441 73.083 24.6309 73.5564 24.4045C74.035 24.1781 74.408 23.8591 74.6756 23.4474C74.9483 23.0358 75.0847 22.5521 75.0847 21.9963C75.0847 21.4612 74.9663 20.9955 74.7296 20.5993C74.4929 20.2031 74.1585 19.8944 73.7262 19.6731C73.2992 19.4518 72.7949 19.3412 72.2134 19.3412C71.668 19.3412 71.1534 19.4415 70.6697 19.6422C70.1912 19.8378 69.8001 20.1233 69.4965 20.499C69.1929 20.8695 69.0283 21.3171 69.0026 21.842H67.1501C67.181 21.0135 67.4306 20.288 67.8988 19.6654C68.3671 19.0376 68.9794 18.5488 69.7358 18.1989C70.4974 17.849 71.3335 17.674 72.2443 17.674C73.222 17.674 74.0607 17.8721 74.7605 18.2683C75.4603 18.6594 75.998 19.1765 76.3737 19.8197C76.7493 20.463 76.9371 21.1576 76.9371 21.9037C76.9371 22.7939 76.703 23.5529 76.2347 24.1807C75.7716 24.8084 75.1413 25.2432 74.3437 25.4851V25.6086C75.342 25.7732 76.1215 26.1978 76.6824 26.8821C77.2433 27.5613 77.5237 28.4027 77.5237 29.4061C77.5237 30.2654 77.2896 31.0372 76.8213 31.7216C76.3582 32.4008 75.7253 32.936 74.9226 33.327C74.1199 33.7181 73.2065 33.9136 72.1826 33.9136ZM83.5481 33.9754C82.7969 33.9754 82.1151 33.8339 81.5027 33.5509C80.8904 33.2627 80.4041 32.8485 80.0439 32.3082C79.6837 31.7628 79.5037 31.1041 79.5037 30.3323C79.5037 29.653 79.6374 29.1025 79.905 28.6805C80.1726 28.2534 80.5302 27.919 80.9779 27.6771C81.4255 27.4353 81.9195 27.2552 82.4598 27.1368C83.0053 27.0133 83.5533 26.9156 84.1038 26.8435C84.8242 26.7509 85.4083 26.6814 85.8559 26.6351C86.3087 26.5837 86.6381 26.4988 86.8439 26.3804C87.0549 26.2621 87.1603 26.0562 87.1603 25.7629V25.7012C87.1603 24.9396 86.952 24.3479 86.5352 23.926C86.1235 23.504 85.4983 23.293 84.6596 23.293C83.79 23.293 83.1082 23.4834 82.6142 23.8642C82.1202 24.245 81.7729 24.6515 81.5722 25.0837L79.8433 24.4662C80.152 23.7459 80.5637 23.185 81.0782 22.7836C81.5979 22.3771 82.1639 22.0941 82.7763 21.9346C83.3937 21.7699 84.0009 21.6876 84.5978 21.6876C84.9786 21.6876 85.416 21.7339 85.91 21.8265C86.4091 21.914 86.8902 22.0967 87.3533 22.3746C87.8216 22.6524 88.2101 23.0718 88.5188 23.6327C88.8275 24.1935 88.9819 24.9448 88.9819 25.8864V33.6975H87.1603V32.0921H87.0677C86.9442 32.3494 86.7384 32.6246 86.4503 32.9179C86.1621 33.2112 85.7787 33.4608 85.3002 33.6666C84.8217 33.8725 84.2376 33.9754 83.5481 33.9754ZM83.826 32.3391C84.5464 32.3391 85.1536 32.1976 85.6475 31.9145C86.1467 31.6315 86.5223 31.2662 86.7744 30.8185C87.0317 30.3709 87.1603 29.9 87.1603 29.4061V27.7389C87.0832 27.8315 86.9134 27.9164 86.6509 27.9936C86.3936 28.0656 86.0952 28.1299 85.7556 28.1865C85.4211 28.238 85.0944 28.2843 84.7753 28.3255C84.4615 28.3615 84.2068 28.3924 84.0112 28.4181C83.5378 28.4798 83.0953 28.5802 82.6837 28.7191C82.2771 28.8529 81.9478 29.0562 81.6957 29.3289C81.4487 29.5964 81.3252 29.9618 81.3252 30.4249C81.3252 31.0578 81.5593 31.5363 82.0276 31.8605C82.501 32.1795 83.1004 32.3391 83.826 32.3391ZM98.7864 33.6975V23.5092H95.6373C94.9272 23.5092 94.3689 23.6738 93.9624 24.0031C93.5559 24.3325 93.3526 24.7853 93.3526 25.3616C93.3526 25.9276 93.5353 26.3727 93.9006 26.6969C94.2711 27.0211 94.778 27.1831 95.4212 27.1831H99.2495V28.8812H95.4212C94.6184 28.8812 93.9264 28.7397 93.3449 28.4567C92.7635 28.1737 92.3158 27.7697 92.0019 27.2449C91.688 26.7149 91.5311 26.0871 91.5311 25.3616C91.5311 24.6309 91.6957 24.0031 92.0251 23.4783C92.3544 22.9534 92.8252 22.5495 93.4375 22.2665C94.055 21.9835 94.7883 21.842 95.6373 21.842H100.515V33.6975H98.7864ZM90.8827 33.6975L94.248 27.8006H96.2239L92.8586 33.6975H90.8827ZM103.207 33.6975V21.842H108.054C109.331 21.842 110.344 22.1301 111.096 22.7064C111.847 23.2828 112.222 24.0443 112.222 24.9911C112.222 25.7115 112.009 26.2698 111.582 26.666C111.155 27.0571 110.607 27.3221 109.938 27.461C110.375 27.5228 110.8 27.6771 111.211 27.9241C111.628 28.1711 111.973 28.5107 112.246 28.9429C112.518 29.37 112.655 29.8949 112.655 30.5175C112.655 31.1247 112.5 31.6676 112.192 32.1461C111.883 32.6246 111.44 33.0028 110.864 33.2807C110.288 33.5586 109.598 33.6975 108.795 33.6975H103.207ZM104.936 32.0303H108.795C109.423 32.0303 109.915 31.8811 110.27 31.5827C110.625 31.2842 110.802 30.8777 110.802 30.3631C110.802 29.7508 110.625 29.2697 110.27 28.9198C109.915 28.5647 109.423 28.3872 108.795 28.3872H104.936V32.0303ZM104.936 26.8127H108.054C108.543 26.8127 108.963 26.7458 109.313 26.612C109.662 26.473 109.93 26.2775 110.115 26.0254C110.306 25.7681 110.401 25.4645 110.401 25.1146C110.401 24.6155 110.192 24.2244 109.776 23.9414C109.359 23.6532 108.785 23.5092 108.054 23.5092H104.936V26.8127ZM114.76 33.6975V21.842H116.582V26.9979H117.786L122.046 21.842H124.393L119.607 27.5536L124.454 33.6975H122.108L118.218 28.696H116.582V33.6975H114.76ZM127.604 31.0115L133.315 21.842H135.415V33.6975H133.593V24.528L127.912 33.6975H125.782V21.842H127.604V31.0115ZM157.144 25.7938C157.144 27.461 156.843 28.9018 156.241 30.1162C155.639 31.3305 154.813 32.267 153.764 32.9257C152.714 33.5843 151.515 33.9136 150.167 33.9136C148.819 33.9136 147.62 33.5843 146.57 32.9257C145.52 32.267 144.695 31.3305 144.093 30.1162C143.49 28.9018 143.189 27.461 143.189 25.7938C143.189 24.1266 143.49 22.6859 144.093 21.4715C144.695 20.2571 145.52 19.3206 146.57 18.662C147.62 18.0033 148.819 17.674 150.167 17.674C151.515 17.674 152.714 18.0033 153.764 18.662C154.813 19.3206 155.639 20.2571 156.241 21.4715C156.843 22.6859 157.144 24.1266 157.144 25.7938ZM155.292 25.7938C155.292 24.4251 155.063 23.2699 154.605 22.3282C154.152 21.3866 153.537 20.6739 152.76 20.1902C151.988 19.7065 151.124 19.4647 150.167 19.4647C149.21 19.4647 148.343 19.7065 147.566 20.1902C146.794 20.6739 146.179 21.3866 145.721 22.3282C145.268 23.2699 145.042 24.4251 145.042 25.7938C145.042 27.1626 145.268 28.3178 145.721 29.2594C146.179 30.2011 146.794 30.9137 147.566 31.3974C148.343 31.8811 149.21 32.1229 150.167 32.1229C151.124 32.1229 151.988 31.8811 152.76 31.3974C153.537 30.9137 154.152 30.2011 154.605 29.2594C155.063 28.3178 155.292 27.1626 155.292 25.7938ZM158.785 23.54V21.842H168.417V23.54H164.527V33.6975H162.706V23.54H158.785ZM168.159 37.0936V31.9995H169.147C169.389 31.7473 169.597 31.4746 169.772 31.1813C169.947 30.888 170.099 30.5407 170.227 30.1393C170.361 29.7328 170.474 29.2388 170.567 28.6574C170.66 28.0708 170.742 27.3632 170.814 26.5348L171.215 21.842H178.749V31.9995H180.57V37.0936H178.749V33.6975H169.98V37.0936H168.159ZM171.215 31.9995H176.927V23.54H172.914L172.605 26.5348C172.476 27.7749 172.317 28.858 172.126 29.7843C171.936 30.7105 171.632 31.4489 171.215 31.9995ZM187.307 33.9445C186.164 33.9445 185.179 33.6924 184.35 33.1881C183.527 32.6787 182.892 31.9686 182.444 31.0578C182.001 30.1419 181.78 29.0767 181.78 27.8624C181.78 26.648 182.001 25.5777 182.444 24.6515C182.892 23.7201 183.514 22.9946 184.312 22.4749C185.115 21.95 186.051 21.6876 187.121 21.6876C187.739 21.6876 188.349 21.7905 188.951 21.9963C189.553 22.2022 190.101 22.5366 190.595 22.9997C191.089 23.4577 191.482 24.0649 191.776 24.8213C192.069 25.5777 192.216 26.5091 192.216 27.6154V28.3872H183.077V26.8127H190.363C190.363 26.1437 190.229 25.5468 189.962 25.022C189.699 24.4971 189.324 24.0829 188.835 23.7793C188.351 23.4757 187.78 23.3239 187.121 23.3239C186.396 23.3239 185.768 23.504 185.238 23.8642C184.713 24.2193 184.309 24.6824 184.026 25.2535C183.743 25.8247 183.602 26.437 183.602 27.0905V28.1402C183.602 29.0356 183.756 29.7945 184.065 30.4172C184.379 31.0346 184.814 31.5055 185.369 31.8296C185.925 32.1487 186.571 32.3082 187.307 32.3082C187.785 32.3082 188.217 32.2413 188.603 32.1075C188.994 31.9686 189.331 31.7628 189.614 31.49C189.897 31.2122 190.116 30.8674 190.271 30.4558L192.03 30.9497C191.845 31.5466 191.534 32.0715 191.096 32.5243C190.659 32.972 190.119 33.3219 189.476 33.574C188.832 33.821 188.109 33.9445 187.307 33.9445ZM193.285 33.6975V31.9995H193.717C194.072 31.9995 194.368 31.93 194.605 31.7911C194.841 31.647 195.032 31.3974 195.176 31.0424C195.325 30.6822 195.438 30.183 195.515 29.545C195.598 28.9018 195.657 28.0836 195.693 27.0905L195.909 21.842H203.813V33.6975H201.991V23.54H197.638L197.453 27.7697C197.412 28.7423 197.324 29.599 197.19 30.34C197.062 31.0758 196.863 31.6933 196.596 32.1924C196.333 32.6915 195.984 33.0672 195.546 33.3193C195.109 33.5714 194.561 33.6975 193.902 33.6975H193.285ZM209.991 33.9754C209.24 33.9754 208.558 33.8339 207.946 33.5509C207.334 33.2627 206.847 32.8485 206.487 32.3082C206.127 31.7628 205.947 31.1041 205.947 30.3323C205.947 29.653 206.081 29.1025 206.348 28.6805C206.616 28.2534 206.974 27.919 207.421 27.6771C207.869 27.4353 208.363 27.2552 208.903 27.1368C209.449 27.0133 209.997 26.9156 210.547 26.8435C211.268 26.7509 211.852 26.6814 212.299 26.6351C212.752 26.5837 213.081 26.4988 213.287 26.3804C213.498 26.2621 213.604 26.0562 213.604 25.7629V25.7012C213.604 24.9396 213.395 24.3479 212.978 23.926C212.567 23.504 211.942 23.293 211.103 23.293C210.233 23.293 209.551 23.4834 209.058 23.8642C208.564 24.245 208.216 24.6515 208.016 25.0837L206.287 24.4662C206.595 23.7459 207.007 23.185 207.522 22.7836C208.041 22.3771 208.607 22.0941 209.22 21.9346C209.837 21.7699 210.444 21.6876 211.041 21.6876C211.422 21.6876 211.859 21.7339 212.353 21.8265C212.852 21.914 213.334 22.0967 213.797 22.3746C214.265 22.6524 214.653 23.0718 214.962 23.6327C215.271 24.1935 215.425 24.9448 215.425 25.8864V33.6975H213.604V32.0921H213.511C213.388 32.3494 213.182 32.6246 212.894 32.9179C212.605 33.2112 212.222 33.4608 211.744 33.6666C211.265 33.8725 210.681 33.9754 209.991 33.9754ZM210.269 32.3391C210.99 32.3391 211.597 32.1976 212.091 31.9145C212.59 31.6315 212.966 31.2662 213.218 30.8185C213.475 30.3709 213.604 29.9 213.604 29.4061V27.7389C213.526 27.8315 213.357 27.9164 213.094 27.9936C212.837 28.0656 212.539 28.1299 212.199 28.1865C211.864 28.238 211.538 28.2843 211.219 28.3255C210.905 28.3615 210.65 28.3924 210.455 28.4181C209.981 28.4798 209.539 28.5802 209.127 28.7191C208.72 28.8529 208.391 29.0562 208.139 29.3289C207.892 29.5964 207.769 29.9618 207.769 30.4249C207.769 31.0578 208.003 31.5363 208.471 31.8605C208.944 32.1795 209.544 32.3391 210.269 32.3391ZM233.099 33.6975L227.665 26.4422H225.72V33.6975H223.806V17.8901H225.72V24.7441H226.554L232.883 17.8901H235.167L228.777 24.8367L235.384 33.6975H233.099ZM240.447 33.9754C239.696 33.9754 239.014 33.8339 238.402 33.5509C237.789 33.2627 237.303 32.8485 236.943 32.3082C236.583 31.7628 236.402 31.1041 236.402 30.3323C236.402 29.653 236.536 29.1025 236.804 28.6805C237.071 28.2534 237.429 27.919 237.877 27.6771C238.324 27.4353 238.818 27.2552 239.359 27.1368C239.904 27.0133 240.452 26.9156 241.003 26.8435C241.723 26.7509 242.307 26.6814 242.755 26.6351C243.208 26.5837 243.537 26.4988 243.743 26.3804C243.954 26.2621 244.059 26.0562 244.059 25.7629V25.7012C244.059 24.9396 243.851 24.3479 243.434 23.926C243.022 23.504 242.397 23.293 241.558 23.293C240.689 23.293 240.007 23.4834 239.513 23.8642C239.019 24.245 238.672 24.6515 238.471 25.0837L236.742 24.4662C237.051 23.7459 237.462 23.185 237.977 22.7836C238.497 22.3771 239.063 22.0941 239.675 21.9346C240.293 21.7699 240.9 21.6876 241.497 21.6876C241.877 21.6876 242.315 21.7339 242.809 21.8265C243.308 21.914 243.789 22.0967 244.252 22.3746C244.72 22.6524 245.109 23.0718 245.418 23.6327C245.726 24.1935 245.881 24.9448 245.881 25.8864V33.6975H244.059V32.0921H243.967C243.843 32.3494 243.637 32.6246 243.349 32.9179C243.061 33.2112 242.678 33.4608 242.199 33.6666C241.72 33.8725 241.136 33.9754 240.447 33.9754ZM240.725 32.3391C241.445 32.3391 242.052 32.1976 242.546 31.9145C243.045 31.6315 243.421 31.2662 243.673 30.8185C243.931 30.3709 244.059 29.9 244.059 29.4061V27.7389C243.982 27.8315 243.812 27.9164 243.55 27.9936C243.292 28.0656 242.994 28.1299 242.654 28.1865C242.32 28.238 241.993 28.2843 241.674 28.3255C241.36 28.3615 241.106 28.3924 240.91 28.4181C240.437 28.4798 239.994 28.5802 239.582 28.7191C239.176 28.8529 238.847 29.0562 238.595 29.3289C238.348 29.5964 238.224 29.9618 238.224 30.4249C238.224 31.0578 238.458 31.5363 238.926 31.8605C239.4 32.1795 239.999 32.3391 240.725 32.3391ZM247.288 37.0936V31.9995H248.276C248.517 31.7473 248.726 31.4746 248.901 31.1813C249.076 30.888 249.227 30.5407 249.356 30.1393C249.49 29.7328 249.603 29.2388 249.696 28.6574C249.788 28.0708 249.871 27.3632 249.943 26.5348L250.344 21.842H257.877V31.9995H259.699V37.0936H257.877V33.6975H249.109V37.0936H247.288ZM250.344 31.9995H256.056V23.54H252.042L251.733 26.5348C251.605 27.7749 251.445 28.858 251.255 29.7843C251.064 30.7105 250.761 31.4489 250.344 31.9995ZM261.465 38.1433V21.842H263.224V23.7253H263.441C263.574 23.5195 263.76 23.257 263.996 22.938C264.238 22.6138 264.583 22.3257 265.031 22.0735C265.483 21.8163 266.096 21.6876 266.868 21.6876C267.866 21.6876 268.746 21.9372 269.507 22.4363C270.269 22.9354 270.863 23.6429 271.29 24.5589C271.717 25.4748 271.931 26.5554 271.931 27.8006C271.931 29.0562 271.717 30.1445 271.29 31.0655C270.863 31.9814 270.271 32.6915 269.515 33.1958C268.759 33.6949 267.886 33.9445 266.898 33.9445C266.137 33.9445 265.527 33.8184 265.069 33.5663C264.611 33.309 264.259 33.0183 264.012 32.6941C263.765 32.3648 263.574 32.0921 263.441 31.876H263.286V38.1433H261.465ZM263.255 27.7697C263.255 28.6651 263.386 29.4549 263.649 30.1393C263.911 30.8185 264.295 31.3511 264.799 31.737C265.303 32.1178 265.921 32.3082 266.651 32.3082C267.413 32.3082 268.048 32.1075 268.558 31.7062C269.072 31.2996 269.458 30.7542 269.716 30.0698C269.978 29.3803 270.109 28.6136 270.109 27.7697C270.109 26.9362 269.981 26.1849 269.723 25.516C269.471 24.8419 269.088 24.3093 268.573 23.9182C268.064 23.522 267.423 23.3239 266.651 23.3239C265.91 23.3239 265.288 23.5117 264.784 23.8874C264.279 24.2579 263.898 24.7776 263.641 25.4465C263.384 26.1103 263.255 26.8847 263.255 27.7697ZM278.874 33.9445C277.803 33.9445 276.864 33.6898 276.056 33.1804C275.254 32.671 274.626 31.9583 274.173 31.0424C273.725 30.1264 273.502 29.0562 273.502 27.8315C273.502 26.5965 273.725 25.5185 274.173 24.5975C274.626 23.6764 275.254 22.9612 276.056 22.4517C276.864 21.9423 277.803 21.6876 278.874 21.6876C279.944 21.6876 280.88 21.9423 281.683 22.4517C282.491 22.9612 283.119 23.6764 283.567 24.5975C284.019 25.5185 284.246 26.5965 284.246 27.8315C284.246 29.0562 284.019 30.1264 283.567 31.0424C283.119 31.9583 282.491 32.671 281.683 33.1804C280.88 33.6898 279.944 33.9445 278.874 33.9445ZM278.874 32.3082C279.687 32.3082 280.356 32.0998 280.88 31.683C281.405 31.2662 281.794 30.7182 282.046 30.039C282.298 29.3597 282.424 28.6239 282.424 27.8315C282.424 27.0391 282.298 26.3007 282.046 25.6163C281.794 24.9319 281.405 24.3788 280.88 23.9568C280.356 23.5349 279.687 23.3239 278.874 23.3239C278.061 23.3239 277.392 23.5349 276.867 23.9568C276.342 24.3788 275.954 24.9319 275.701 25.6163C275.449 26.3007 275.323 27.0391 275.323 27.8315C275.323 28.6239 275.449 29.3597 275.701 30.039C275.954 30.7182 276.342 31.2662 276.867 31.683C277.392 32.0998 278.061 32.3082 278.874 32.3082ZM286.374 33.6975V21.842H291.221C292.498 21.842 293.511 22.1301 294.262 22.7064C295.014 23.2828 295.389 24.0443 295.389 24.9911C295.389 25.7115 295.176 26.2698 294.749 26.666C294.322 27.0571 293.774 27.3221 293.105 27.461C293.542 27.5228 293.967 27.6771 294.378 27.9241C294.795 28.1711 295.14 28.5107 295.413 28.9429C295.685 29.37 295.822 29.8949 295.822 30.5175C295.822 31.1247 295.667 31.6676 295.359 32.1461C295.05 32.6246 294.607 33.0028 294.031 33.2807C293.455 33.5586 292.765 33.6975 291.962 33.6975H286.374ZM288.103 32.0303H291.962C292.59 32.0303 293.082 31.8811 293.437 31.5827C293.792 31.2842 293.969 30.8777 293.969 30.3631C293.969 29.7508 293.792 29.2697 293.437 28.9198C293.082 28.5647 292.59 28.3872 291.962 28.3872H288.103V32.0303ZM288.103 26.8127H291.221C291.71 26.8127 292.13 26.7458 292.48 26.612C292.829 26.473 293.097 26.2775 293.282 26.0254C293.473 25.7681 293.568 25.4645 293.568 25.1146C293.568 24.6155 293.359 24.2244 292.943 23.9414C292.526 23.6532 291.952 23.5092 291.221 23.5092H288.103V26.8127Z" fill="#121212"/>
</svg>
