<svg width="151" height="24" viewBox="0 0 151 24" fill="none" xmlns="http://www.w3.org/2000/svg">
<path d="M0.68 23V20.24H3.53V4.82H0.68V2.06H9.8V4.82H6.92V20.24H9.8V23H0.68ZM13.8205 23V7.4H17.0905V9.98H17.2405C17.4005 9.58 17.5905 9.2 17.8105 8.84C18.0505 8.48 18.3305 8.17 18.6505 7.91C18.9905 7.63 19.3805 7.42 19.8205 7.28C20.2805 7.12 20.8105 7.04 21.4105 7.04C22.4705 7.04 23.4105 7.3 24.2305 7.82C25.0505 8.34 25.6505 9.14 26.0305 10.22H26.1205C26.4005 9.34 26.9405 8.59 27.7405 7.97C28.5405 7.35 29.5705 7.04 30.8305 7.04C32.3905 7.04 33.6005 7.57 34.4605 8.63C35.3205 9.67 35.7505 11.16 35.7505 13.1V23H32.4805V13.49C32.4805 12.29 32.2505 11.39 31.7905 10.79C31.3305 10.17 30.6005 9.86 29.6005 9.86C29.1805 9.86 28.7805 9.92 28.4005 10.04C28.0205 10.14 27.6805 10.3 27.3805 10.52C27.1005 10.74 26.8705 11.02 26.6905 11.36C26.5105 11.7 26.4205 12.09 26.4205 12.53V23H23.1505V13.49C23.1505 11.07 22.2005 9.86 20.3005 9.86C19.9005 9.86 19.5005 9.92 19.1005 10.04C18.7205 10.14 18.3805 10.3 18.0805 10.52C17.7805 10.74 17.5405 11.02 17.3605 11.36C17.1805 11.7 17.0905 12.09 17.0905 12.53V23H13.8205ZM40.2755 23V7.4H43.5455V9.98H43.6955C43.8555 9.58 44.0455 9.2 44.2655 8.84C44.5055 8.48 44.7855 8.17 45.1055 7.91C45.4455 7.63 45.8355 7.42 46.2755 7.28C46.7355 7.12 47.2655 7.04 47.8655 7.04C48.9255 7.04 49.8655 7.3 50.6855 7.82C51.5055 8.34 52.1055 9.14 52.4855 10.22H52.5755C52.8555 9.34 53.3955 8.59 54.1955 7.97C54.9955 7.35 56.0255 7.04 57.2855 7.04C58.8455 7.04 60.0555 7.57 60.9155 8.63C61.7755 9.67 62.2055 11.16 62.2055 13.1V23H58.9355V13.49C58.9355 12.29 58.7055 11.39 58.2455 10.79C57.7855 10.17 57.0555 9.86 56.0555 9.86C55.6355 9.86 55.2355 9.92 54.8555 10.04C54.4755 10.14 54.1355 10.3 53.8355 10.52C53.5555 10.74 53.3255 11.02 53.1455 11.36C52.9655 11.7 52.8755 12.09 52.8755 12.53V23H49.6055V13.49C49.6055 11.07 48.6555 9.86 46.7555 9.86C46.3555 9.86 45.9555 9.92 45.5555 10.04C45.1755 10.14 44.8355 10.3 44.5355 10.52C44.2355 10.74 43.9955 11.02 43.8155 11.36C43.6355 11.7 43.5455 12.09 43.5455 12.53V23H40.2755ZM68.3806 4.61C67.7006 4.61 67.2006 4.45 66.8806 4.13C66.5806 3.81 66.4306 3.4 66.4306 2.9V2.39C66.4306 1.89 66.5806 1.48 66.8806 1.16C67.2006 0.839999 67.7006 0.679999 68.3806 0.679999C69.0606 0.679999 69.5506 0.839999 69.8506 1.16C70.1506 1.48 70.3006 1.89 70.3006 2.39V2.9C70.3006 3.4 70.1506 3.81 69.8506 4.13C69.5506 4.45 69.0606 4.61 68.3806 4.61ZM66.7306 7.4H70.0006V23H66.7306V7.4ZM74.6701 23V7.4H77.9401V9.98H78.0901C78.4301 9.14 78.9401 8.44 79.6201 7.88C80.3201 7.32 81.2701 7.04 82.4701 7.04C84.0701 7.04 85.3101 7.57 86.1901 8.63C87.0901 9.67 87.5401 11.16 87.5401 13.1V23H84.2701V13.52C84.2701 11.08 83.2901 9.86 81.3301 9.86C80.9101 9.86 80.4901 9.92 80.0701 10.04C79.6701 10.14 79.3101 10.3 78.9901 10.52C78.6701 10.74 78.4101 11.02 78.2101 11.36C78.0301 11.7 77.9401 12.1 77.9401 12.56V23H74.6701ZM98.4418 5.06V23H95.0518V5.06H88.8118V2.06H104.682V5.06H98.4418ZM111.903 23.36C110.783 23.36 109.783 23.17 108.903 22.79C108.023 22.41 107.273 21.87 106.653 21.17C106.033 20.45 105.553 19.59 105.213 18.59C104.893 17.57 104.733 16.44 104.733 15.2C104.733 13.96 104.893 12.84 105.213 11.84C105.553 10.82 106.033 9.96 106.653 9.26C107.273 8.54 108.023 7.99 108.903 7.61C109.783 7.23 110.783 7.04 111.903 7.04C113.043 7.04 114.043 7.24 114.903 7.64C115.783 8.04 116.513 8.6 117.093 9.32C117.673 10.02 118.103 10.84 118.383 11.78C118.683 12.72 118.833 13.73 118.833 14.81V16.04H108.123V16.55C108.123 17.75 108.473 18.74 109.173 19.52C109.893 20.28 110.913 20.66 112.233 20.66C113.193 20.66 114.003 20.45 114.663 20.03C115.323 19.61 115.883 19.04 116.343 18.32L118.263 20.21C117.683 21.17 116.843 21.94 115.743 22.52C114.643 23.08 113.363 23.36 111.903 23.36ZM111.903 9.59C111.343 9.59 110.823 9.69 110.343 9.89C109.883 10.09 109.483 10.37 109.143 10.73C108.823 11.09 108.573 11.52 108.393 12.02C108.213 12.52 108.123 13.07 108.123 13.67V13.88H115.383V13.58C115.383 12.38 115.073 11.42 114.453 10.7C113.833 9.96 112.983 9.59 111.903 9.59ZM128.483 23.36C127.363 23.36 126.363 23.17 125.483 22.79C124.603 22.41 123.863 21.87 123.263 21.17C122.663 20.45 122.203 19.59 121.883 18.59C121.563 17.57 121.403 16.44 121.403 15.2C121.403 13.96 121.563 12.84 121.883 11.84C122.203 10.82 122.663 9.96 123.263 9.26C123.863 8.54 124.603 7.99 125.483 7.61C126.363 7.23 127.363 7.04 128.483 7.04C130.043 7.04 131.323 7.39 132.323 8.09C133.323 8.79 134.053 9.72 134.513 10.88L131.813 12.14C131.593 11.42 131.203 10.85 130.643 10.43C130.103 9.99 129.383 9.77 128.483 9.77C127.283 9.77 126.373 10.15 125.753 10.91C125.153 11.65 124.853 12.62 124.853 13.82V16.61C124.853 17.81 125.153 18.79 125.753 19.55C126.373 20.29 127.283 20.66 128.483 20.66C129.443 20.66 130.203 20.43 130.763 19.97C131.343 19.49 131.803 18.86 132.143 18.08L134.633 19.4C134.113 20.68 133.333 21.66 132.293 22.34C131.253 23.02 129.983 23.36 128.483 23.36ZM137.746 0.8H141.016V9.98H141.166C141.506 9.14 142.016 8.44 142.696 7.88C143.396 7.32 144.346 7.04 145.546 7.04C147.146 7.04 148.386 7.57 149.266 8.63C150.166 9.67 150.616 11.16 150.616 13.1V23H147.346V13.49C147.346 11.07 146.366 9.86 144.406 9.86C143.986 9.86 143.566 9.92 143.146 10.04C142.746 10.14 142.386 10.3 142.066 10.52C141.746 10.74 141.486 11.02 141.286 11.36C141.106 11.7 141.016 12.09 141.016 12.53V23H137.746V0.8Z" fill="#CEFF45"/>
</svg>
