<svg width="35" height="35" viewBox="0 0 35 35" fill="none" xmlns="http://www.w3.org/2000/svg">
<path d="M34.0543 18.0858L34.0537 16.8907C30.5202 16.5729 27.8425 16.2641 25.781 15.7699C23.7254 15.2771 22.3454 14.6138 21.3606 13.6298C20.3763 12.6461 19.7183 11.2735 19.2281 9.22225C18.7363 7.16447 18.4273 4.48852 18.0974 0.944387L16.9025 0.945146C16.5488 4.79762 16.2167 7.62272 15.6466 9.74405C15.0812 11.8478 14.2981 13.1947 13.0823 14.1457C12.0557 14.9471 10.6571 15.4984 8.67243 15.9193C6.68722 16.3403 4.17211 16.6201 0.94552 16.9142L0.945512 18.1093C4.04204 18.3917 6.48373 18.6599 8.43116 19.0525C10.3792 19.4453 11.781 19.9534 12.8248 20.6846L12.8265 20.6857C14.1481 21.605 14.9873 22.929 15.5869 25.0462C16.1932 27.1865 16.5369 30.0717 16.9025 34.0548L18.0975 34.055C18.4512 30.2144 18.7833 27.3888 19.3507 25.267C19.9137 23.1613 20.6916 21.816 21.894 20.8779L21.8948 20.8773C22.9341 20.0636 24.3336 19.5069 26.3166 19.0835C28.3013 18.6597 30.8159 18.38 34.0543 18.0858Z" fill="white" stroke="#212121" stroke-width="1.2"/>
</svg>
