<svg width="279" height="78" viewBox="0 0 279 78" fill="none" xmlns="http://www.w3.org/2000/svg">
<path d="M2.10197 9.32541C2.20032 10.0369 2.39681 14.7594 2.49516 19.8702L2.72457 29.1859H9.21219H15.7325V19.4821V9.77814H20.0905C27.6922 9.77814 31.0016 10.9428 35.0972 14.9536C36.8994 16.7326 37.8824 18.0264 38.7672 19.8055C40.0451 22.4256 41.1263 25.5953 41.4867 27.795L41.7161 29.1859H48.5313C52.2996 29.1859 55.3794 29.0565 55.3794 28.9271C55.3794 28.3448 54.1344 25.0778 53.2497 23.3635C49.285 15.5359 42.4369 10.9103 31.8861 8.93727C29.5927 8.51684 26.2505 8.35495 15.4377 8.25786L1.90527 8.09619L2.10197 9.32541Z" fill="#121212"/>
<path d="M63.0473 10.0048C63.1456 11.0398 63.3421 15.7623 63.4405 20.5173L63.6699 29.186H70.1248H76.5797L76.7762 20.3554C76.9072 15.536 77.1039 10.781 77.2023 9.84308L77.4315 8.16113H70.1248H62.8506L63.0473 10.0048Z" fill="#121212"/>
<path d="M2.62601 54.0276C2.62601 58.2648 2.46224 63.2461 2.29846 65.1222C2.13447 66.9658 2.00341 68.6801 1.9707 68.9065C1.9707 69.586 28.3146 69.2301 31.9516 68.5184C40.9623 66.7394 47.4828 62.8257 51.7095 56.6152C53.4462 54.0921 55.7069 48.464 55.7069 46.7495C55.7069 46.4262 54.1342 46.3291 48.8589 46.3291H42.0108L41.7813 47.8171C40.7985 54.3509 37.5874 60.7554 33.721 63.8607C30.1824 66.7071 26.7418 67.6775 20.2542 67.6775H15.7325V57.0033V46.3291H9.21198H2.65872L2.62601 54.0276Z" fill="#121212"/>
<path d="M63.4405 56.0977C63.3094 61.4993 63.1456 66.6748 63.0473 67.5804L62.8506 69.2947H70.1248H77.3988L77.2023 67.7421C77.1039 66.9013 76.9399 61.7581 76.8089 56.2593L76.5797 46.3291H70.1248H63.6699L63.4405 56.0977Z" fill="#121212"/>
<path d="M2.73145 42.0596V35.593H4.11691V40.9275H6.77743V42.0596H2.73145ZM19.6348 42.0596L19.1577 40.5198H16.7723L16.2952 42.0596H14.7998L17.1119 35.5657H18.8091L21.1302 42.0596H19.6348ZM18.3505 37.8661C18.32 37.7636 18.28 37.6336 18.2311 37.4767C18.1823 37.3198 18.1332 37.1598 18.0844 36.9967C18.0355 36.8337 17.9955 36.6917 17.965 36.571C17.9347 36.6917 17.8917 36.8428 17.8366 37.024C17.7878 37.1989 17.7387 37.3681 17.6899 37.5311C17.6469 37.688 17.6135 37.7998 17.589 37.8661L17.1211 39.3697H18.8276L18.3505 37.8661ZM37.3451 35.593L35.6753 42.0596H34.0973L33.2076 38.6632C33.1891 38.5969 33.1645 38.4972 33.134 38.3644C33.1094 38.2313 33.0791 38.0865 33.0423 37.9296C33.012 37.7727 32.9843 37.6245 32.9597 37.4858C32.9351 37.3408 32.9169 37.2294 32.9048 37.1507C32.8985 37.2294 32.8803 37.3408 32.8497 37.4858C32.8252 37.6245 32.7975 37.7727 32.7672 37.9296C32.7367 38.0807 32.7059 38.2257 32.6754 38.3644C32.6449 38.4972 32.6203 38.5997 32.6019 38.6723L31.7213 42.0596H30.1431L28.4734 35.593H29.8404L30.6753 39.125C30.6999 39.2276 30.7275 39.3545 30.7578 39.5056C30.7883 39.6504 30.8193 39.8045 30.8496 39.9674C30.8801 40.1243 30.9078 40.2782 30.9321 40.4292C30.9626 40.5803 30.9844 40.7101 30.9964 40.8187C31.0085 40.7038 31.027 40.5742 31.0515 40.4292C31.0761 40.2782 31.1036 40.1276 31.1341 39.9765C31.1646 39.8196 31.192 39.6746 31.2166 39.5418C31.2472 39.4029 31.2746 39.2943 31.2992 39.2156L32.2533 35.593H33.5654L34.5195 39.2156C34.5377 39.2943 34.5623 39.4029 34.5928 39.5418C34.6233 39.6746 34.6541 39.8196 34.6846 39.9765C34.7151 40.1334 34.7425 40.2873 34.7671 40.4384C34.7917 40.5833 34.8102 40.7101 34.8222 40.8187C34.8405 40.6676 34.8681 40.4897 34.9048 40.2845C34.9414 40.0732 34.9812 39.8617 35.024 39.6504C35.0729 39.4393 35.1129 39.264 35.1434 39.125L35.9783 35.593H37.3451ZM47.9123 38.2556L49.2793 35.593H50.7748L48.6003 39.5418V42.0596H47.2241V39.5871L45.0498 35.593H46.5545L47.9123 38.2556ZM63.078 42.0596H59.3073V35.593H63.078V36.716H60.6926V38.1379H62.9129V39.2609H60.6926V40.9275H63.078V42.0596ZM74.0559 35.593C74.6493 35.593 75.1385 35.6654 75.5237 35.8103C75.9092 35.949 76.1966 36.1636 76.3863 36.4533C76.576 36.737 76.6706 37.0963 76.6706 37.5311C76.6706 37.8271 76.6126 38.0865 76.4963 38.31C76.3863 38.5273 76.2366 38.7146 76.0467 38.8715C75.8634 39.0225 75.6645 39.1461 75.4504 39.2429L77.377 42.0596H75.8357L74.2761 39.578H73.533V42.0596H72.1476V35.593H74.0559ZM73.955 36.716H73.533V38.4641H73.9824C74.2882 38.4641 74.5359 38.4307 74.7258 38.3644C74.9154 38.298 75.0531 38.1984 75.1385 38.0655C75.2241 37.9266 75.2669 37.7604 75.2669 37.5673C75.2669 37.362 75.2182 37.1989 75.1202 37.0784C75.0285 36.9514 74.8845 36.861 74.6889 36.8066C74.4992 36.7461 74.2548 36.716 73.955 36.716Z" fill="#121212"/>
<path d="M100.906 26.7551L104.677 26.3885C104.904 27.6541 105.362 28.5836 106.051 29.1771C106.75 29.7706 107.688 30.0674 108.866 30.0674C110.114 30.0674 111.053 29.8055 111.681 29.2819C112.318 28.7495 112.637 28.1298 112.637 27.4228C112.637 26.9689 112.501 26.5849 112.231 26.2707C111.969 25.9478 111.507 25.6685 110.843 25.4328C110.389 25.2757 109.355 24.9964 107.74 24.5949C105.663 24.08 104.206 23.4472 103.368 22.6966C102.189 21.6405 101.6 20.3531 101.6 18.8344C101.6 17.8569 101.875 16.9448 102.425 16.0982C102.984 15.2428 103.782 14.5926 104.821 14.1475C105.868 13.7023 107.129 13.4798 108.604 13.4798C111.013 13.4798 112.824 14.0078 114.038 15.0639C115.26 16.12 115.901 17.5296 115.962 19.2926L112.087 19.4628C111.921 18.4766 111.563 17.7696 111.013 17.3419C110.472 16.9055 109.656 16.6873 108.565 16.6873C107.439 16.6873 106.558 16.9186 105.921 17.3812C105.51 17.6779 105.305 18.0751 105.305 18.5726C105.305 19.0264 105.497 19.4148 105.881 19.7378C106.37 20.148 107.557 20.5757 109.442 21.0208C111.328 21.4659 112.72 21.9285 113.619 22.4085C114.526 22.8799 115.233 23.5301 115.74 24.3593C116.255 25.1797 116.512 26.1965 116.512 27.4097C116.512 28.5094 116.207 29.5393 115.596 30.4994C114.985 31.4595 114.121 32.1752 113.003 32.6465C111.886 33.1091 110.494 33.3404 108.827 33.3404C106.401 33.3404 104.537 32.7818 103.237 31.6646C101.936 30.5387 101.159 28.9022 100.906 26.7551ZM118.005 19.0963H121.919L125.244 28.9677L128.491 19.0963H132.301L127.392 32.4763L126.514 34.8983C126.191 35.7101 125.882 36.3297 125.585 36.7574C125.297 37.1851 124.961 37.5298 124.577 37.7917C124.201 38.0623 123.734 38.2717 123.176 38.4201C122.626 38.5685 122.002 38.6427 121.304 38.6427C120.597 38.6427 119.903 38.5685 119.222 38.4201L118.895 35.5399C119.471 35.6533 119.99 35.7101 120.453 35.7101C121.308 35.7101 121.941 35.4569 122.351 34.9507C122.761 34.4532 123.076 33.8161 123.294 33.0393L118.005 19.0963ZM134.671 33V13.8071H138.35V33H134.671ZM150.185 28.5749L153.851 29.1902C153.379 30.5343 152.633 31.5599 151.612 32.2668C150.599 32.9651 149.329 33.3142 147.802 33.3142C145.384 33.3142 143.595 32.5243 142.434 30.9445C141.518 29.679 141.06 28.0818 141.06 26.1529C141.06 23.8487 141.662 22.0463 142.866 20.7458C144.071 19.4366 145.594 18.782 147.435 18.782C149.504 18.782 151.136 19.4672 152.332 20.8375C153.528 22.1991 154.099 24.2894 154.047 27.1086H144.83C144.856 28.1996 145.153 29.0506 145.72 29.6615C146.288 30.2638 146.995 30.5649 147.841 30.5649C148.417 30.5649 148.902 30.4078 149.294 30.0936C149.687 29.7794 149.984 29.2731 150.185 28.5749ZM150.394 24.8568C150.368 23.7919 150.093 22.9846 149.569 22.4347C149.046 21.8761 148.409 21.5968 147.658 21.5968C146.855 21.5968 146.192 21.8892 145.668 22.474C145.144 23.0588 144.887 23.853 144.896 24.8568H150.394ZM155.317 19.0963H159.231L162.557 28.9677L165.804 19.0963H169.613L164.704 32.4763L163.827 34.8983C163.504 35.7101 163.194 36.3297 162.897 36.7574C162.609 37.1851 162.273 37.5298 161.889 37.7917C161.514 38.0623 161.047 38.2717 160.488 38.4201C159.938 38.5685 159.314 38.6427 158.616 38.6427C157.909 38.6427 157.215 38.5685 156.534 38.4201L156.207 35.5399C156.783 35.6533 157.302 35.7101 157.765 35.7101C158.62 35.7101 159.253 35.4569 159.663 34.9507C160.074 34.4532 160.388 33.8161 160.606 33.0393L155.317 19.0963ZM171.708 19.0963H175.099V20.9946C176.312 19.5196 177.757 18.782 179.432 18.782C180.323 18.782 181.095 18.9653 181.75 19.3319C182.404 19.6985 182.941 20.2527 183.36 20.9946C183.971 20.2527 184.63 19.6985 185.337 19.3319C186.044 18.9653 186.799 18.782 187.602 18.782C188.623 18.782 189.487 18.9915 190.194 19.4105C190.901 19.8207 191.429 20.4273 191.778 21.2303C192.031 21.8238 192.158 22.7838 192.158 24.1105V33H188.479V25.0531C188.479 23.6741 188.352 22.7838 188.099 22.3824C187.759 21.8587 187.235 21.5968 186.528 21.5968C186.013 21.5968 185.529 21.7539 185.075 22.0681C184.621 22.3824 184.294 22.8449 184.093 23.4559C183.892 24.0581 183.792 25.0139 183.792 26.3231V33H180.113V25.3804C180.113 24.0276 180.048 23.1548 179.917 22.762C179.786 22.3693 179.581 22.0769 179.301 21.8849C179.031 21.6928 178.66 21.5968 178.189 21.5968C177.621 21.5968 177.111 21.7496 176.657 22.0551C176.203 22.3605 175.876 22.8013 175.675 23.3773C175.483 23.9534 175.387 24.9091 175.387 26.2445V33H171.708V19.0963ZM198.586 23.3381L195.248 22.7358C195.623 21.3917 196.269 20.3967 197.185 19.7509C198.102 19.105 199.463 18.782 201.27 18.782C202.911 18.782 204.133 18.9784 204.936 19.3712C205.739 19.7552 206.302 20.2484 206.625 20.8506C206.956 21.4441 207.122 22.5395 207.122 24.1367L207.083 28.4309C207.083 29.6528 207.139 30.5562 207.253 31.1409C207.375 31.717 207.598 32.3367 207.921 33H204.281C204.185 32.7556 204.067 32.3934 203.928 31.9134C203.866 31.6952 203.823 31.5511 203.797 31.4813C203.168 32.0923 202.496 32.5505 201.78 32.856C201.065 33.1615 200.301 33.3142 199.489 33.3142C198.058 33.3142 196.928 32.9258 196.099 32.149C195.278 31.3722 194.868 30.3903 194.868 29.2033C194.868 28.4178 195.056 27.7195 195.431 27.1086C195.806 26.4889 196.33 26.0176 197.002 25.6946C197.683 25.363 198.66 25.075 199.935 24.8306C201.654 24.5076 202.845 24.2065 203.509 23.9272V23.5606C203.509 22.8537 203.334 22.3518 202.985 22.0551C202.636 21.7496 201.977 21.5968 201.008 21.5968C200.353 21.5968 199.843 21.7278 199.476 21.9896C199.11 22.2427 198.813 22.6922 198.586 23.3381ZM203.509 26.3231C203.037 26.4802 202.291 26.6678 201.27 26.886C200.249 27.1042 199.581 27.3181 199.267 27.5275C198.787 27.8679 198.547 28.3 198.547 28.8236C198.547 29.3386 198.739 29.7837 199.123 30.159C199.507 30.5343 199.996 30.722 200.589 30.722C201.252 30.722 201.885 30.5038 202.487 30.0674C202.933 29.7357 203.225 29.3299 203.365 28.8498C203.461 28.5356 203.509 27.9377 203.509 27.0562V26.3231ZM223.409 33H219.73V25.9041C219.73 24.4029 219.651 23.4341 219.494 22.9977C219.337 22.5526 219.079 22.2078 218.722 21.9634C218.372 21.719 217.949 21.5968 217.452 21.5968C216.815 21.5968 216.243 21.7714 215.737 22.1205C215.23 22.4696 214.881 22.9322 214.689 23.5083C214.506 24.0843 214.414 25.1491 214.414 26.7027V33H210.735V19.0963H214.152V21.1386C215.366 19.5676 216.893 18.782 218.735 18.782C219.546 18.782 220.288 18.9304 220.96 19.2272C221.632 19.5152 222.139 19.8861 222.479 20.34C222.828 20.7939 223.068 21.3088 223.199 21.8849C223.339 22.4609 223.409 23.2857 223.409 24.3593V33ZM226.302 25.8517C226.302 24.6298 226.603 23.4472 227.205 22.3038C227.807 21.1604 228.658 20.2876 229.758 19.6854C230.867 19.0832 232.102 18.782 233.463 18.782C235.567 18.782 237.29 19.4672 238.635 20.8375C239.979 22.1991 240.651 23.9229 240.651 26.0089C240.651 28.1123 239.97 29.8579 238.608 31.2457C237.256 32.6247 235.549 33.3142 233.489 33.3142C232.215 33.3142 230.998 33.0262 229.837 32.4501C228.685 31.8741 227.807 31.0318 227.205 29.9234C226.603 28.8062 226.302 27.449 226.302 25.8517ZM230.072 26.0481C230.072 27.4272 230.4 28.4832 231.054 29.2164C231.709 29.9496 232.516 30.3161 233.476 30.3161C234.436 30.3161 235.239 29.9496 235.885 29.2164C236.54 28.4832 236.867 27.4184 236.867 26.0219C236.867 24.6604 236.54 23.613 235.885 22.8799C235.239 22.1467 234.436 21.7801 233.476 21.7801C232.516 21.7801 231.709 22.1467 231.054 22.8799C230.4 23.613 230.072 24.6691 230.072 26.0481ZM247.367 33L241.764 19.0963H245.626L248.244 26.1921L249.003 28.5618C249.204 27.9596 249.331 27.5624 249.383 27.3704C249.505 26.9777 249.636 26.5849 249.776 26.1921L252.421 19.0963H256.204L250.679 33H247.367ZM261.218 23.3381L257.88 22.7358C258.255 21.3917 258.901 20.3967 259.818 19.7509C260.734 19.105 262.096 18.782 263.902 18.782C265.543 18.782 266.765 18.9784 267.568 19.3712C268.371 19.7552 268.934 20.2484 269.257 20.8506C269.589 21.4441 269.754 22.5395 269.754 24.1367L269.715 28.4309C269.715 29.6528 269.772 30.5562 269.885 31.1409C270.007 31.717 270.23 32.3367 270.553 33H266.913C266.817 32.7556 266.7 32.3934 266.56 31.9134C266.499 31.6952 266.455 31.5511 266.429 31.4813C265.801 32.0923 265.129 32.5505 264.413 32.856C263.697 33.1615 262.933 33.3142 262.122 33.3142C260.69 33.3142 259.56 32.9258 258.731 32.149C257.91 31.3722 257.5 30.3903 257.5 29.2033C257.5 28.4178 257.688 27.7195 258.063 27.1086C258.438 26.4889 258.962 26.0176 259.634 25.6946C260.315 25.363 261.293 25.075 262.567 24.8306C264.286 24.5076 265.478 24.2065 266.141 23.9272V23.5606C266.141 22.8537 265.966 22.3518 265.617 22.0551C265.268 21.7496 264.609 21.5968 263.64 21.5968C262.986 21.5968 262.475 21.7278 262.109 21.9896C261.742 22.2427 261.445 22.6922 261.218 23.3381ZM266.141 26.3231C265.67 26.4802 264.923 26.6678 263.902 26.886C262.881 27.1042 262.213 27.3181 261.899 27.5275C261.419 27.8679 261.179 28.3 261.179 28.8236C261.179 29.3386 261.371 29.7837 261.755 30.159C262.139 30.5343 262.628 30.722 263.221 30.722C263.885 30.722 264.518 30.5038 265.12 30.0674C265.565 29.7357 265.857 29.3299 265.997 28.8498C266.093 28.5356 266.141 27.9377 266.141 27.0562V26.3231ZM118.869 61.6565L116.643 64.4975C115.552 63.9651 114.505 63.2319 113.501 62.298C112.724 62.9963 111.899 63.5112 111.026 63.8429C110.154 64.1746 109.115 64.3404 107.911 64.3404C105.519 64.3404 103.721 63.6683 102.517 62.3242C101.583 61.2856 101.116 60.0898 101.116 58.737C101.116 57.5063 101.482 56.4023 102.216 55.4247C102.949 54.4384 104.044 53.5831 105.502 52.8587C104.847 52.0819 104.354 51.3444 104.022 50.6461C103.691 49.9391 103.525 49.2715 103.525 48.643C103.525 47.4822 103.987 46.5003 104.912 45.6973C105.846 44.8856 107.173 44.4798 108.892 44.4798C110.551 44.4798 111.847 44.9031 112.781 45.7497C113.715 46.5963 114.182 47.6306 114.182 48.8525C114.182 49.6293 113.95 50.3668 113.488 51.0651C113.025 51.7633 112.091 52.5532 110.686 53.4347L113.357 56.9565C113.671 56.3979 113.942 55.6691 114.169 54.7701L117.494 55.5294C117.162 56.7077 116.874 57.5718 116.63 58.1217C116.385 58.6628 116.124 59.1167 115.844 59.4832C116.255 59.8673 116.783 60.2906 117.428 60.7532C118.083 61.207 118.563 61.5081 118.869 61.6565ZM108.853 51.2222L109.848 50.4628C110.581 49.8955 110.948 49.3326 110.948 48.774C110.948 48.3026 110.769 47.9012 110.411 47.5695C110.062 47.2378 109.586 47.072 108.984 47.072C108.399 47.072 107.941 47.2204 107.609 47.5171C107.278 47.8051 107.112 48.1412 107.112 48.5252C107.112 48.9791 107.391 49.5289 107.95 50.1748L108.853 51.2222ZM107.413 55.2152C106.566 55.6429 105.934 56.1579 105.515 56.7601C105.096 57.3623 104.886 57.9777 104.886 58.6061C104.886 59.4003 105.144 60.0506 105.659 60.5568C106.182 61.0543 106.881 61.303 107.753 61.303C108.329 61.303 108.884 61.1896 109.416 60.9626C109.949 60.7357 110.529 60.3604 111.157 59.8367L107.413 55.2152ZM128.727 64V44.8071H134.946C137.302 44.8071 138.838 44.9031 139.554 45.0951C140.654 45.3831 141.575 46.0115 142.316 46.9803C143.058 47.9404 143.429 49.1842 143.429 50.7116C143.429 51.8899 143.215 52.8805 142.788 53.6835C142.36 54.4865 141.815 55.1192 141.151 55.5818C140.497 56.0357 139.829 56.3368 139.148 56.4852C138.223 56.6685 136.883 56.7601 135.129 56.7601H132.602V64H128.727ZM132.602 48.0539V53.5002H134.723C136.25 53.5002 137.272 53.3998 137.787 53.1991C138.302 52.9983 138.703 52.6841 138.991 52.2564C139.288 51.8288 139.436 51.3313 139.436 50.7639C139.436 50.0657 139.231 49.4897 138.821 49.0358C138.411 48.5819 137.891 48.2983 137.263 48.1848C136.8 48.0975 135.871 48.0539 134.474 48.0539H132.602ZM149.334 54.3381L145.995 53.7358C146.371 52.3917 147.016 51.3967 147.933 50.7509C148.849 50.105 150.211 49.782 152.018 49.782C153.659 49.782 154.88 49.9784 155.683 50.3712C156.486 50.7552 157.049 51.2484 157.372 51.8506C157.704 52.4441 157.87 53.5395 157.87 55.1367L157.831 59.4309C157.831 60.6528 157.887 61.5562 158.001 62.1409C158.123 62.717 158.345 63.3367 158.668 64H155.029C154.933 63.7556 154.815 63.3934 154.675 62.9134C154.614 62.6952 154.571 62.5511 154.544 62.4813C153.916 63.0923 153.244 63.5505 152.528 63.856C151.813 64.1615 151.049 64.3142 150.237 64.3142C148.806 64.3142 147.675 63.9258 146.846 63.149C146.026 62.3722 145.616 61.3903 145.616 60.2033C145.616 59.4178 145.803 58.7195 146.179 58.1086C146.554 57.4889 147.078 57.0176 147.75 56.6946C148.43 56.363 149.408 56.075 150.682 55.8306C152.402 55.5076 153.593 55.2065 154.256 54.9272V54.5606C154.256 53.8537 154.082 53.3518 153.733 53.0551C153.384 52.7496 152.725 52.5968 151.756 52.5968C151.101 52.5968 150.591 52.7278 150.224 52.9896C149.857 53.2427 149.561 53.6922 149.334 54.3381ZM154.256 57.3231C153.785 57.4802 153.039 57.6678 152.018 57.886C150.996 58.1042 150.329 58.3181 150.015 58.5275C149.535 58.8679 149.294 59.3 149.294 59.8236C149.294 60.3386 149.487 60.7837 149.871 61.159C150.255 61.5343 150.743 61.722 151.337 61.722C152 61.722 152.633 61.5038 153.235 61.0674C153.68 60.7357 153.973 60.3299 154.112 59.8498C154.208 59.5356 154.256 58.9377 154.256 58.0562V57.3231ZM165.031 64H161.352V50.0963H164.769V52.0732C165.354 51.1393 165.878 50.5239 166.34 50.2272C166.812 49.9304 167.344 49.782 167.938 49.782C168.775 49.782 169.583 50.0133 170.36 50.4759L169.221 53.6835C168.601 53.282 168.025 53.0812 167.492 53.0812C166.977 53.0812 166.541 53.2253 166.183 53.5133C165.825 53.7926 165.542 54.3032 165.332 55.045C165.132 55.7869 165.031 57.3405 165.031 59.7058V64ZM178.333 50.0963V53.0289H175.819V58.6323C175.819 59.7669 175.841 60.4302 175.884 60.6223C175.937 60.8055 176.046 60.9583 176.212 61.0805C176.386 61.2027 176.596 61.2638 176.84 61.2638C177.181 61.2638 177.674 61.1459 178.32 60.9103L178.634 63.7643C177.778 64.1309 176.81 64.3142 175.727 64.3142C175.064 64.3142 174.466 64.2051 173.934 63.9869C173.401 63.76 173.009 63.472 172.755 63.1228C172.511 62.765 172.341 62.2849 172.245 61.6827C172.166 61.255 172.127 60.391 172.127 59.0905V53.0289H170.438V50.0963H172.127V47.3338L175.819 45.1867V50.0963H178.333ZM193.533 64H189.854V56.9041C189.854 55.4029 189.775 54.4341 189.618 53.9977C189.461 53.5526 189.203 53.2078 188.846 52.9634C188.496 52.719 188.073 52.5968 187.576 52.5968C186.938 52.5968 186.367 52.7714 185.861 53.1205C185.354 53.4696 185.005 53.9322 184.813 54.5083C184.63 55.0843 184.538 56.1491 184.538 57.7027V64H180.859V50.0963H184.276V52.1386C185.49 50.5676 187.017 49.782 188.859 49.782C189.67 49.782 190.412 49.9304 191.084 50.2272C191.756 50.5152 192.263 50.8861 192.603 51.34C192.952 51.7939 193.192 52.3088 193.323 52.8849C193.463 53.4609 193.533 54.2857 193.533 55.3593V64ZM205.328 59.5749L208.994 60.1902C208.523 61.5343 207.777 62.5599 206.755 63.2668C205.743 63.9651 204.473 64.3142 202.946 64.3142C200.528 64.3142 198.739 63.5243 197.578 61.9445C196.661 60.679 196.203 59.0818 196.203 57.1529C196.203 54.8487 196.806 53.0463 198.01 51.7458C199.214 50.4366 200.737 49.782 202.579 49.782C204.648 49.782 206.28 50.4672 207.476 51.8375C208.671 53.1991 209.243 55.2894 209.191 58.1086H199.974C200 59.1996 200.297 60.0506 200.864 60.6615C201.431 61.2638 202.138 61.5649 202.985 61.5649C203.561 61.5649 204.045 61.4078 204.438 61.0936C204.831 60.7794 205.128 60.2731 205.328 59.5749ZM205.538 55.8568C205.512 54.7919 205.237 53.9846 204.713 53.4347C204.189 52.8761 203.552 52.5968 202.802 52.5968C201.999 52.5968 201.335 52.8892 200.812 53.474C200.288 54.0588 200.031 54.853 200.039 55.8568H205.538ZM215.724 64H212.045V50.0963H215.462V52.0732C216.046 51.1393 216.57 50.5239 217.033 50.2272C217.504 49.9304 218.036 49.782 218.63 49.782C219.468 49.782 220.275 50.0133 221.052 50.4759L219.913 53.6835C219.293 53.282 218.717 53.0812 218.185 53.0812C217.67 53.0812 217.233 53.2253 216.876 53.5133C216.518 53.7926 216.234 54.3032 216.025 55.045C215.824 55.7869 215.724 57.3405 215.724 59.7058V64ZM221.353 60.0331L225.045 59.4702C225.202 60.1859 225.521 60.7314 226.001 61.1067C226.481 61.4732 227.153 61.6565 228.017 61.6565C228.968 61.6565 229.684 61.482 230.164 61.1328C230.487 60.8885 230.648 60.5612 230.648 60.1509C230.648 59.8716 230.561 59.6404 230.387 59.4571C230.203 59.2825 229.793 59.121 229.156 58.9727C226.188 58.3181 224.308 57.7202 223.513 57.179C222.414 56.4284 221.864 55.3854 221.864 54.05C221.864 52.8456 222.339 51.8331 223.291 51.0127C224.242 50.1923 225.717 49.782 227.716 49.782C229.619 49.782 231.032 50.0919 231.958 50.7116C232.883 51.3313 233.52 52.2477 233.869 53.4609L230.4 54.1024C230.251 53.5613 229.968 53.1467 229.549 52.8587C229.138 52.5706 228.549 52.4266 227.781 52.4266C226.812 52.4266 226.119 52.5619 225.7 52.8325C225.42 53.0245 225.281 53.2733 225.281 53.5787C225.281 53.8406 225.403 54.0631 225.647 54.2464C225.979 54.4908 227.122 54.8356 229.077 55.2807C231.041 55.7258 232.411 56.2713 233.188 56.9172C233.956 57.5718 234.34 58.4839 234.34 59.6534C234.34 60.9277 233.808 62.0231 232.743 62.9395C231.678 63.856 230.103 64.3142 228.017 64.3142C226.123 64.3142 224.622 63.9302 223.513 63.1621C222.414 62.394 221.693 61.351 221.353 60.0331Z" fill="#121212"/>
</svg>
