<svg width="17" height="14" viewBox="0 0 17 14" fill="none" xmlns="http://www.w3.org/2000/svg">
<path d="M1.78977 5.84169C6.16258 3.93653 9.07847 2.68053 10.5374 2.07369C14.7031 0.341052 15.5687 0.0400738 16.1329 0.0301353C16.257 0.0279494 16.5344 0.0587016 16.7141 0.204531C16.8659 0.327666 16.9076 0.494004 16.9276 0.610749C16.9476 0.727495 16.9725 0.993444 16.9527 1.20125C16.7269 3.5731 15.7502 9.32897 15.2533 11.9855C15.043 13.1096 14.629 13.4865 14.2281 13.5233C13.3571 13.6035 12.6956 12.9477 11.8519 12.3946C10.5317 11.5292 9.7859 10.9905 8.50442 10.146C7.02345 9.17009 7.98351 8.6337 8.82751 7.75709C9.04838 7.52767 12.8864 4.03672 12.9607 3.72004C12.9699 3.68043 12.9786 3.5328 12.8909 3.45484C12.8032 3.37689 12.6737 3.40354 12.5803 3.42475C12.4479 3.4548 10.3389 4.84879 6.25321 7.60672C5.65457 8.01779 5.11234 8.21808 4.62652 8.20758C4.09094 8.19601 3.0607 7.90476 2.29483 7.6558C1.35545 7.35045 0.608856 7.189 0.673868 6.67042C0.70773 6.40031 1.0797 6.12406 1.78977 5.84169Z" fill="white"/>
</svg>
